<svg width="24" height="24" viewBox="0 0 24 24" fill="none" xmlns="http://www.w3.org/2000/svg">
<path d="M19.4 23.25H8.19999C6.40507 23.25 4.95 21.7949 4.95 20V4C4.95 2.20508 6.40507 0.75 8.2 0.75H16.1893L22.65 7.21066V20C22.65 21.7949 21.1949 23.25 19.4 23.25Z" fill="white" stroke="#D0D5DD" stroke-width="1.5"/>
<path d="M16.2 0.299988V3.19999C16.2 5.40912 17.9909 7.19999 20.2 7.19999H23.1" stroke="#D0D5DD" stroke-width="1.5"/>
<rect x="0.5" y="10.6" width="17" height="10" rx="2" fill="#7856C8"/>
<path d="M7.13632 15.2367H6.35862C6.34442 15.1361 6.31541 15.0467 6.27162 14.9686C6.22782 14.8893 6.17159 14.8218 6.10294 14.7662C6.03428 14.7105 5.95497 14.6679 5.86501 14.6383C5.77623 14.6087 5.67976 14.5939 5.57559 14.5939C5.38738 14.5939 5.22344 14.6407 5.08376 14.7342C4.94408 14.8265 4.83577 14.9615 4.75883 15.139C4.68189 15.3154 4.64342 15.5297 4.64342 15.7818C4.64342 16.041 4.68189 16.2588 4.75883 16.4352C4.83696 16.6116 4.94586 16.7447 5.08554 16.8347C5.22522 16.9247 5.38679 16.9696 5.57027 16.9696C5.67325 16.9696 5.76854 16.956 5.85613 16.9288C5.94491 16.9016 6.02363 16.8619 6.09229 16.8098C6.16094 16.7566 6.21776 16.6921 6.26274 16.6163C6.3089 16.5406 6.34086 16.4541 6.35862 16.3571L7.13632 16.3606C7.1162 16.5275 7.06589 16.6885 6.9854 16.8436C6.90609 16.9975 6.79896 17.1354 6.66402 17.2573C6.53026 17.378 6.37046 17.4739 6.18461 17.5449C5.99996 17.6148 5.79103 17.6497 5.55784 17.6497C5.2335 17.6497 4.94349 17.5763 4.68781 17.4295C4.43331 17.2827 4.23208 17.0703 4.08412 16.7921C3.93734 16.5139 3.86395 16.1772 3.86395 15.7818C3.86395 15.3853 3.93852 15.0479 4.08767 14.7697C4.23682 14.4915 4.43923 14.2797 4.69491 14.1341C4.95059 13.9873 5.23824 13.9139 5.55784 13.9139C5.76854 13.9139 5.96385 13.9435 6.14378 14.0027C6.32488 14.0619 6.48528 14.1483 6.62496 14.2619C6.76463 14.3744 6.87827 14.5123 6.96586 14.6756C7.05464 14.839 7.11146 15.026 7.13632 15.2367ZM9.66029 15.0094C9.64608 14.8662 9.58512 14.7549 9.47741 14.6756C9.36969 14.5963 9.2235 14.5567 9.03884 14.5567C8.91337 14.5567 8.80742 14.5744 8.72101 14.6099C8.6346 14.6442 8.56832 14.6922 8.52215 14.7537C8.47717 14.8153 8.45468 14.8851 8.45468 14.9633C8.45231 15.0284 8.46592 15.0852 8.49552 15.1337C8.52629 15.1822 8.56831 15.2243 8.62158 15.2598C8.67485 15.2941 8.7364 15.3243 8.80624 15.3503C8.87608 15.3752 8.95065 15.3965 9.02996 15.4143L9.35667 15.4924C9.51528 15.5279 9.66088 15.5752 9.79346 15.6344C9.92603 15.6936 10.0409 15.7664 10.1379 15.8528C10.235 15.9392 10.3101 16.041 10.3634 16.1582C10.4179 16.2754 10.4457 16.4098 10.4469 16.5613C10.4457 16.7838 10.3889 16.9768 10.2764 17.1401C10.1651 17.3023 10.0042 17.4283 9.79346 17.5183C9.58394 17.6071 9.33122 17.6515 9.03529 17.6515C8.74173 17.6515 8.48605 17.6065 8.26824 17.5165C8.05162 17.4266 7.88235 17.2934 7.76043 17.117C7.63969 16.9395 7.57636 16.7199 7.57045 16.4583H8.31441C8.32269 16.5802 8.35761 16.682 8.41917 16.7637C8.4819 16.8442 8.56536 16.9051 8.66952 16.9466C8.77487 16.9868 8.89384 17.0069 9.02641 17.0069C9.15662 17.0069 9.26966 16.988 9.36555 16.9501C9.46261 16.9122 9.53778 16.8596 9.59104 16.7921C9.64431 16.7246 9.67094 16.6471 9.67094 16.5595C9.67094 16.4778 9.64668 16.4092 9.59814 16.3535C9.5508 16.2979 9.48096 16.2505 9.38863 16.2115C9.29748 16.1724 9.18562 16.1369 9.05305 16.1049L8.65709 16.0055C8.35051 15.9309 8.10844 15.8143 7.93089 15.6557C7.75333 15.4971 7.66514 15.2835 7.66633 15.0147C7.66514 14.7946 7.72374 14.6022 7.84211 14.4377C7.96166 14.2732 8.12561 14.1447 8.33394 14.0524C8.54227 13.9601 8.77902 13.9139 9.04417 13.9139C9.31405 13.9139 9.54961 13.9601 9.75084 14.0524C9.95326 14.1447 10.1107 14.2732 10.2231 14.4377C10.3356 14.6022 10.3936 14.7928 10.3972 15.0094H9.66029ZM11.621 13.9636L12.4999 16.7264H12.5336L13.4143 13.9636H14.2666L13.013 17.6H12.0222L10.7669 13.9636H11.621Z" fill="white"/>
</svg>
