<svg width="24" height="24" viewBox="0 0 24 24" fill="none" xmlns="http://www.w3.org/2000/svg">
<path d="M4.95001 4C4.95001 2.20508 6.40509 0.75 8.20001 0.75H16.1894L22.65 7.21066V20C22.65 21.7949 21.1949 23.25 19.4 23.25H8.20001C6.40508 23.25 4.95001 21.7949 4.95001 20V4Z" fill="white" stroke="#D0D5DD" stroke-width="1.5"/>
<path d="M16.2 0.299805V3.1998C16.2 5.40894 17.9909 7.1998 20.2 7.1998H23.1" stroke="#D0D5DD" stroke-width="1.5"/>
<rect x="0.299988" y="10.6001" width="18" height="10" rx="2" fill="#155EEF"/>
<path d="M5.2508 17.6001H3.96174V13.9637H5.26146C5.62723 13.9637 5.94209 14.0365 6.20606 14.1821C6.47003 14.3265 6.67303 14.5343 6.81508 14.8054C6.95831 15.0764 7.02992 15.4008 7.02992 15.7784C7.02992 16.1572 6.95831 16.4827 6.81508 16.7549C6.67303 17.0272 6.46884 17.2361 6.20251 17.3817C5.93736 17.5273 5.62012 17.6001 5.2508 17.6001ZM4.73056 16.9414H5.21884C5.44612 16.9414 5.63729 16.9011 5.79235 16.8206C5.9486 16.7389 6.06579 16.6129 6.14392 16.4424C6.22322 16.2708 6.26288 16.0494 6.26288 15.7784C6.26288 15.5097 6.22322 15.2901 6.14392 15.1196C6.06579 14.9492 5.94919 14.8237 5.79413 14.7432C5.63906 14.6627 5.44789 14.6225 5.22062 14.6225H4.73056V16.9414ZM10.9411 15.7819C10.9411 16.1785 10.8659 16.5158 10.7156 16.794C10.5664 17.0722 10.3628 17.2846 10.1048 17.4314C9.8479 17.577 9.55907 17.6498 9.23829 17.6498C8.91513 17.6498 8.62512 17.5764 8.36826 17.4296C8.11139 17.2829 7.90839 17.0704 7.75924 16.7922C7.61009 16.514 7.53552 16.1773 7.53552 15.7819C7.53552 15.3854 7.61009 15.048 7.75924 14.7698C7.90839 14.4917 8.11139 14.2798 8.36826 14.1342C8.62512 13.9874 8.91513 13.914 9.23829 13.914C9.55907 13.914 9.8479 13.9874 10.1048 14.1342C10.3628 14.2798 10.5664 14.4917 10.7156 14.7698C10.8659 15.048 10.9411 15.3854 10.9411 15.7819ZM10.1616 15.7819C10.1616 15.5251 10.1231 15.3084 10.0462 15.1321C9.97041 14.9557 9.86329 14.8219 9.72479 14.7308C9.5863 14.6396 9.42413 14.5941 9.23829 14.5941C9.05244 14.5941 8.89028 14.6396 8.75178 14.7308C8.61329 14.8219 8.50557 14.9557 8.42863 15.1321C8.35287 15.3084 8.31499 15.5251 8.31499 15.7819C8.31499 16.0388 8.35287 16.2554 8.42863 16.4318C8.50557 16.6081 8.61329 16.7419 8.75178 16.8331C8.89028 16.9242 9.05244 16.9698 9.23829 16.9698C9.42413 16.9698 9.5863 16.9242 9.72479 16.8331C9.86329 16.7419 9.97041 16.6081 10.0462 16.4318C10.1231 16.2554 10.1616 16.0388 10.1616 15.7819ZM14.719 15.2368H13.9413C13.9271 15.1362 13.8981 15.0468 13.8543 14.9687C13.8105 14.8894 13.7543 14.8219 13.6856 14.7663C13.617 14.7107 13.5377 14.668 13.4477 14.6384C13.3589 14.6089 13.2625 14.5941 13.1583 14.5941C12.9701 14.5941 12.8061 14.6408 12.6665 14.7343C12.5268 14.8267 12.4185 14.9616 12.3415 15.1392C12.2646 15.3155 12.2261 15.5298 12.2261 15.7819C12.2261 16.0411 12.2646 16.259 12.3415 16.4353C12.4197 16.6117 12.5286 16.7449 12.6682 16.8348C12.8079 16.9248 12.9695 16.9698 13.153 16.9698C13.256 16.9698 13.3512 16.9562 13.4388 16.9289C13.5276 16.9017 13.6063 16.8621 13.675 16.81C13.7436 16.7567 13.8005 16.6922 13.8454 16.6164C13.8916 16.5407 13.9236 16.4543 13.9413 16.3572L14.719 16.3608C14.6989 16.5277 14.6486 16.6886 14.5681 16.8437C14.4888 16.9976 14.3817 17.1355 14.2467 17.2574C14.113 17.3782 13.9532 17.474 13.7673 17.5451C13.5827 17.6149 13.3737 17.6498 13.1405 17.6498C12.8162 17.6498 12.5262 17.5764 12.2705 17.4296C12.016 17.2829 11.8148 17.0704 11.6668 16.7922C11.52 16.514 11.4466 16.1773 11.4466 15.7819C11.4466 15.3854 11.5212 15.048 11.6704 14.7698C11.8195 14.4917 12.0219 14.2798 12.2776 14.1342C12.5333 13.9874 12.8209 13.914 13.1405 13.914C13.3512 13.914 13.5466 13.9436 13.7265 14.0028C13.9076 14.062 14.068 14.1484 14.2077 14.262C14.3473 14.3745 14.461 14.5124 14.5486 14.6757C14.6373 14.8391 14.6942 15.0261 14.719 15.2368Z" fill="white"/>
</svg>
