<svg id="Component_12_1" data-name="Component 12 – 1" xmlns="http://www.w3.org/2000/svg" width="36" height="38.876"
     viewBox="0 0 36 38.876">
    <g id="excel" transform="translate(0 0)">
        <g id="Group_15082" data-name="Group 15082">
            <path id="Path_13237" data-name="Path 13237"
                  d="M272.875,104.761h-15.75A1.125,1.125,0,0,1,256,103.636v-22.5a1.125,1.125,0,0,1,1.125-1.125h15.75A1.125,1.125,0,0,1,274,81.136v22.5A1.125,1.125,0,0,1,272.875,104.761Z"
                  transform="translate(-238 -75.509)" fill="#eceff1"/>
            <g id="Group_13977" data-name="Group 13977" transform="translate(18 9.002)">
                <path id="Path_13238" data-name="Path 13238"
                      d="M261.625,146.261h-4.5a1.125,1.125,0,0,1,0-2.25h4.5a1.125,1.125,0,0,1,0,2.25Z"
                      transform="translate(-256 -144.011)" fill="#388e3c"/>
                <path id="Path_13239" data-name="Path 13239"
                      d="M261.625,210.261h-4.5a1.125,1.125,0,0,1,0-2.25h4.5a1.125,1.125,0,0,1,0,2.25Z"
                      transform="translate(-256 -203.511)" fill="#388e3c"/>
                <path id="Path_13240" data-name="Path 13240"
                      d="M261.625,274.261h-4.5a1.125,1.125,0,0,1,0-2.25h4.5a1.125,1.125,0,0,1,0,2.25Z"
                      transform="translate(-256 -263.011)" fill="#388e3c"/>
                <path id="Path_13241" data-name="Path 13241"
                      d="M261.625,338.261h-4.5a1.125,1.125,0,0,1,0-2.25h4.5a1.125,1.125,0,0,1,0,2.25Z"
                      transform="translate(-256 -322.511)" fill="#388e3c"/>
                <path id="Path_13242" data-name="Path 13242"
                      d="M387.375,146.261h-2.25a1.125,1.125,0,0,1,0-2.25h2.25a1.125,1.125,0,0,1,0,2.25Z"
                      transform="translate(-375 -144.011)" fill="#388e3c"/>
                <path id="Path_13243" data-name="Path 13243"
                      d="M387.375,210.261h-2.25a1.125,1.125,0,0,1,0-2.25h2.25a1.125,1.125,0,0,1,0,2.25Z"
                      transform="translate(-375 -203.511)" fill="#388e3c"/>
                <path id="Path_13244" data-name="Path 13244"
                      d="M387.375,274.261h-2.25a1.125,1.125,0,0,1,0-2.25h2.25a1.125,1.125,0,0,1,0,2.25Z"
                      transform="translate(-375 -263.011)" fill="#388e3c"/>
                <path id="Path_13245" data-name="Path 13245"
                      d="M387.375,338.261h-2.25a1.125,1.125,0,0,1,0-2.25h2.25a1.125,1.125,0,0,1,0,2.25Z"
                      transform="translate(-375 -322.511)" fill="#388e3c"/>
            </g>
            <path id="Path_13246" data-name="Path 13246"
                  d="M19.843,16.25a1.105,1.105,0,0,0-.925-.238l-18,3.375A1.122,1.122,0,0,0,0,20.491v24.75a1.124,1.124,0,0,0,.918,1.1l18,3.375a1.059,1.059,0,0,0,.207.02,1.125,1.125,0,0,0,1.125-1.125v-31.5A1.122,1.122,0,0,0,19.843,16.25Z"
                  transform="translate(0 -15.989)" fill="#2e7d32"/>
            <path id="Path_13247" data-name="Path 13247"
                  d="M89.831,170.535l-3.557-4.066,3.6-4.626A1.125,1.125,0,1,0,88.1,160.46l-3.332,4.284-2.808-3.208a1.124,1.124,0,1,0-1.692,1.481l3.094,3.537-3.136,4.032A1.126,1.126,0,0,0,82,171.966l2.869-3.69,3.271,3.737a1.123,1.123,0,1,0,1.692-1.478Z"
                  transform="translate(-74.36 -149.899)" fill="#fafafa"/>
        </g>
    </g>
</svg>
