<svg width="24" height="24" viewBox="0 0 24 24" fill="none" xmlns="http://www.w3.org/2000/svg">
<path d="M19.4 23.25H8.19999C6.40507 23.25 4.95 21.7949 4.95 20V4C4.95 2.20508 6.40507 0.75 8.2 0.75H16.1893L22.65 7.21066V20C22.65 21.7949 21.1949 23.25 19.4 23.25Z" fill="white" stroke="#D0D5DD" stroke-width="1.5"/>
<path d="M16.2 0.299988V3.19999C16.2 5.40912 17.9909 7.19999 20.2 7.19999H23.1" stroke="#D0D5DD" stroke-width="1.5"/>
<rect x="1" y="10.6" width="16" height="10" rx="2" fill="#C2764B"/>
<path d="M5.82573 13.9636H6.58567V16.4991C6.58567 16.7335 6.533 16.9371 6.42765 17.1099C6.32348 17.2827 6.17847 17.4159 5.99263 17.5094C5.80679 17.6029 5.59076 17.6497 5.34455 17.6497C5.12556 17.6497 4.9267 17.6112 4.74796 17.5343C4.5704 17.4562 4.42954 17.3378 4.32537 17.1792C4.22121 17.0194 4.16971 16.8187 4.1709 16.5772H4.93617C4.93854 16.6731 4.95807 16.7554 4.99476 16.8241C5.03264 16.8915 5.08413 16.9436 5.14924 16.9803C5.21552 17.0158 5.29365 17.0336 5.38361 17.0336C5.47831 17.0336 5.55821 17.0134 5.62331 16.9732C5.6896 16.9318 5.73991 16.8714 5.77424 16.7921C5.80856 16.7128 5.82573 16.6151 5.82573 16.4991V13.9636ZM7.22132 17.6V13.9636H8.65598C8.93179 13.9636 9.16676 14.0163 9.36088 14.1216C9.55501 14.2258 9.70298 14.3708 9.80478 14.5567C9.90776 14.7413 9.95925 14.9544 9.95925 15.1959C9.95925 15.4373 9.90717 15.6504 9.803 15.8351C9.69883 16.0197 9.54791 16.1635 9.35023 16.2665C9.15373 16.3695 8.91581 16.421 8.63645 16.421H7.72203V15.8049H8.51216C8.66013 15.8049 8.78205 15.7794 8.87793 15.7285C8.97499 15.6764 9.0472 15.6048 9.09455 15.5137C9.14308 15.4214 9.16735 15.3154 9.16735 15.1959C9.16735 15.0751 9.14308 14.9698 9.09455 14.8798C9.0472 14.7887 8.97499 14.7182 8.87793 14.6685C8.78087 14.6176 8.65776 14.5922 8.50861 14.5922H7.99015V17.6H7.22132ZM12.8699 15.139C12.845 15.0526 12.8101 14.9763 12.7651 14.91C12.7201 14.8425 12.6651 14.7857 12.6 14.7395C12.536 14.6922 12.4627 14.6561 12.3798 14.6312C12.2981 14.6064 12.2076 14.5939 12.1081 14.5939C11.9223 14.5939 11.7589 14.6401 11.6181 14.7324C11.4784 14.8248 11.3695 14.9591 11.2914 15.1355C11.2132 15.3107 11.1742 15.5249 11.1742 15.7782C11.1742 16.0316 11.2127 16.247 11.2896 16.4245C11.3665 16.6021 11.4754 16.7376 11.6163 16.8312C11.7572 16.9235 11.9235 16.9696 12.1152 16.9696C12.2892 16.9696 12.4378 16.9389 12.5609 16.8773C12.6852 16.8146 12.7799 16.7264 12.845 16.6128C12.9113 16.4991 12.9444 16.3648 12.9444 16.2097L13.1007 16.2328H12.1632V15.654H13.6848V16.112C13.6848 16.4317 13.6174 16.7063 13.4824 16.9359C13.3475 17.1644 13.1616 17.3407 12.9249 17.465C12.6882 17.5881 12.4171 17.6497 12.1117 17.6497C11.7708 17.6497 11.4713 17.5745 11.2132 17.4242C10.9552 17.2727 10.754 17.0578 10.6096 16.7797C10.4663 16.5003 10.3947 16.1689 10.3947 15.7853C10.3947 15.4906 10.4373 15.2278 10.5225 14.997C10.609 14.765 10.7297 14.5685 10.8848 14.4075C11.0398 14.2465 11.2203 14.124 11.4263 14.04C11.6323 13.9559 11.8554 13.9139 12.0957 13.9139C12.3017 13.9139 12.4934 13.9441 12.671 14.0044C12.8485 14.0636 13.006 14.1477 13.1433 14.2566C13.2818 14.3655 13.3948 14.4951 13.4824 14.6454C13.57 14.7946 13.6262 14.9591 13.6511 15.139H12.8699Z" fill="white"/>
</svg>
