<svg width="24" height="24" viewBox="0 0 24 24" fill="none" xmlns="http://www.w3.org/2000/svg">
<path d="M4.95001 4C4.95001 2.20508 6.40509 0.75 8.20001 0.75H16.1894L22.65 7.21066V20C22.65 21.7949 21.1949 23.25 19.4 23.25H8.20001C6.40508 23.25 4.95001 21.7949 4.95001 20V4Z" fill="white" stroke="#D0D5DD" stroke-width="1.5"/>
<path d="M16.2 0.299805V3.1998C16.2 5.40894 17.9909 7.1998 20.2 7.1998H23.1" stroke="#D0D5DD" stroke-width="1.5"/>
<rect x="0.399994" y="10.6001" width="16" height="10" rx="2" fill="#D92D20"/>
<path d="M3.81614 17.6001V13.9637H5.2508C5.52661 13.9637 5.76157 14.0164 5.9557 14.1218C6.14983 14.2259 6.2978 14.3709 6.39959 14.5568C6.50258 14.7414 6.55407 14.9545 6.55407 15.196C6.55407 15.4375 6.50199 15.6505 6.39782 15.8352C6.29365 16.0198 6.14273 16.1637 5.94505 16.2666C5.74855 16.3696 5.51063 16.4211 5.23127 16.4211H4.31685V15.805H5.10698C5.25494 15.805 5.37687 15.7795 5.47275 15.7286C5.56981 15.6766 5.64202 15.605 5.68937 15.5138C5.7379 15.4215 5.76217 15.3155 5.76217 15.196C5.76217 15.0752 5.7379 14.9699 5.68937 14.8799C5.64202 14.7888 5.56981 14.7184 5.47275 14.6686C5.37568 14.6177 5.25258 14.5923 5.10343 14.5923H4.58496V17.6001H3.81614ZM8.34251 17.6001H7.05345V13.9637H8.35316C8.71893 13.9637 9.0338 14.0365 9.29777 14.1821C9.56173 14.3265 9.76474 14.5343 9.90679 14.8054C10.05 15.0764 10.1216 15.4008 10.1216 15.7784C10.1216 16.1572 10.05 16.4827 9.90679 16.7549C9.76474 17.0272 9.56055 17.2361 9.29421 17.3817C9.02906 17.5273 8.71183 17.6001 8.34251 17.6001ZM7.82227 16.9414H8.31055C8.53782 16.9414 8.72899 16.9011 8.88406 16.8206C9.04031 16.7389 9.1575 16.6129 9.23562 16.4424C9.31493 16.2708 9.35458 16.0494 9.35458 15.7784C9.35458 15.5097 9.31493 15.2901 9.23562 15.1196C9.1575 14.9492 9.0409 14.8237 8.88583 14.7432C8.73077 14.6627 8.5396 14.6225 8.31233 14.6225H7.82227V16.9414ZM10.6911 17.6001V13.9637H13.0988V14.5976H11.46V15.4641H12.939V16.098H11.46V17.6001H10.6911Z" fill="white"/>
</svg>
