<svg width="24" height="24" viewBox="0 0 24 24" fill="none" xmlns="http://www.w3.org/2000/svg">
<path d="M19.4 23.25H8.19999C6.40507 23.25 4.95 21.7949 4.95 20V4C4.95 2.20508 6.40507 0.75 8.2 0.75H16.1893L22.65 7.21066V20C22.65 21.7949 21.1949 23.25 19.4 23.25Z" fill="white" stroke="#C3CBD6" stroke-width="1.5"/>
<path d="M16.2 0.299988V3.19999C16.2 5.40912 17.9909 7.19999 20.2 7.19999H23.1" stroke="#C3CBD6" stroke-width="1.5"/>
<rect x="0.5" y="10.6" width="20" height="10" rx="2" fill="#E62E05"/>
<path d="M3.86781 17.6V13.9636H5.30247C5.57827 13.9636 5.81324 14.0163 6.00737 14.1216C6.2015 14.2258 6.34946 14.3708 6.45126 14.5567C6.55424 14.7413 6.60574 14.9544 6.60574 15.1959C6.60574 15.4373 6.55365 15.6504 6.44949 15.8351C6.34532 16.0197 6.1944 16.1635 5.99672 16.2665C5.80022 16.3695 5.56229 16.421 5.28294 16.421H4.36852V15.8049H5.15865C5.30661 15.8049 5.42853 15.7794 5.52441 15.7285C5.62148 15.6764 5.69368 15.6048 5.74103 15.5137C5.78957 15.4214 5.81383 15.3154 5.81383 15.1959C5.81383 15.0751 5.78957 14.9698 5.74103 14.8798C5.69368 14.7887 5.62148 14.7182 5.52441 14.6685C5.42735 14.6176 5.30424 14.5922 5.1551 14.5922H4.63663V17.6H3.86781ZM10.4467 15.7818C10.4467 16.1783 10.3716 16.5157 10.2212 16.7939C10.0721 17.072 9.86849 17.2845 9.61044 17.4313C9.35357 17.5769 9.06475 17.6497 8.74396 17.6497C8.42081 17.6497 8.1308 17.5763 7.87393 17.4295C7.61707 17.2827 7.41406 17.0703 7.26491 16.7921C7.11577 16.5139 7.04119 16.1772 7.04119 15.7818C7.04119 15.3853 7.11577 15.0479 7.26491 14.7697C7.41406 14.4915 7.61707 14.2797 7.87393 14.1341C8.1308 13.9873 8.42081 13.9139 8.74396 13.9139C9.06475 13.9139 9.35357 13.9873 9.61044 14.1341C9.86849 14.2797 10.0721 14.4915 10.2212 14.7697C10.3716 15.0479 10.4467 15.3853 10.4467 15.7818ZM9.66726 15.7818C9.66726 15.5249 9.62879 15.3083 9.55185 15.1319C9.47609 14.9556 9.36896 14.8218 9.23047 14.7307C9.09197 14.6395 8.92981 14.5939 8.74396 14.5939C8.55812 14.5939 8.39595 14.6395 8.25746 14.7307C8.11896 14.8218 8.01125 14.9556 7.9343 15.1319C7.85855 15.3083 7.82067 15.5249 7.82067 15.7818C7.82067 16.0387 7.85855 16.2553 7.9343 16.4317C8.01125 16.608 8.11896 16.7418 8.25746 16.8329C8.39595 16.9241 8.55812 16.9696 8.74396 16.9696C8.92981 16.9696 9.09197 16.9241 9.23047 16.8329C9.36896 16.7418 9.47609 16.608 9.55185 16.4317C9.62879 16.2553 9.66726 16.0387 9.66726 15.7818ZM10.7117 14.5975V13.9636H13.6982V14.5975H12.585V17.6H11.825V14.5975H10.7117ZM14.911 13.9636L15.6443 15.203H15.6727L16.4095 13.9636H17.2778L16.1681 15.7818L17.3026 17.6H16.4184L15.6727 16.3589H15.6443L14.8985 17.6H14.0178L15.156 15.7818L14.0392 13.9636H14.911Z" fill="white"/>
</svg>
