<svg width="24" height="24" viewBox="0 0 24 24" fill="none" xmlns="http://www.w3.org/2000/svg">
<path d="M19.4 23.25H8.19999C6.40507 23.25 4.95 21.7949 4.95 20V4C4.95 2.20508 6.40507 0.75 8.2 0.75H16.1893L22.65 7.21066V20C22.65 21.7949 21.1949 23.25 19.4 23.25Z" fill="white" stroke="#C3CBD6" stroke-width="1.5"/>
<path d="M16.2 0.299988V3.19999C16.2 5.40912 17.9909 7.19999 20.2 7.19999H23.1" stroke="#C3CBD6" stroke-width="1.5"/>
<rect x="0.5" y="10.6" width="20" height="10" rx="2" fill="#E62E05"/>
<path d="M4.15345 17.6V13.9636H5.58811C5.86392 13.9636 6.09888 14.0163 6.29301 14.1216C6.48714 14.2258 6.63511 14.3708 6.73691 14.5567C6.83989 14.7413 6.89138 14.9544 6.89138 15.1959C6.89138 15.4373 6.8393 15.6504 6.73513 15.8351C6.63096 16.0197 6.48004 16.1635 6.28236 16.2665C6.08586 16.3695 5.84794 16.421 5.56858 16.421H4.65416V15.8049H5.44429C5.59226 15.8049 5.71418 15.7794 5.81006 15.7285C5.90712 15.6764 5.97933 15.6048 6.02668 15.5137C6.07521 15.4214 6.09948 15.3154 6.09948 15.1959C6.09948 15.0751 6.07521 14.9698 6.02668 14.8798C5.97933 14.7887 5.90712 14.7182 5.81006 14.6685C5.71299 14.6176 5.58989 14.5922 5.44074 14.5922H4.92227V17.6H4.15345ZM7.39076 17.6V13.9636H8.82542C9.10122 13.9636 9.33619 14.0163 9.53032 14.1216C9.72445 14.2258 9.87241 14.3708 9.97421 14.5567C10.0772 14.7413 10.1287 14.9544 10.1287 15.1959C10.1287 15.4373 10.0766 15.6504 9.97243 15.8351C9.86827 16.0197 9.71734 16.1635 9.51966 16.2665C9.32317 16.3695 9.08524 16.421 8.80589 16.421H7.89147V15.8049H8.6816C8.82956 15.8049 8.95148 15.7794 9.04736 15.7285C9.14443 15.6764 9.21663 15.6048 9.26398 15.5137C9.31251 15.4214 9.33678 15.3154 9.33678 15.1959C9.33678 15.0751 9.31251 14.9698 9.26398 14.8798C9.21663 14.7887 9.14443 14.7182 9.04736 14.6685C8.9503 14.6176 8.82719 14.5922 8.67805 14.5922H8.15958V17.6H7.39076ZM12.6007 15.0094C12.5865 14.8662 12.5256 14.7549 12.4178 14.6756C12.3101 14.5963 12.1639 14.5567 11.9793 14.5567C11.8538 14.5567 11.7479 14.5744 11.6614 14.6099C11.575 14.6442 11.5087 14.6922 11.4626 14.7537C11.4176 14.8153 11.3951 14.8851 11.3951 14.9633C11.3927 15.0284 11.4064 15.0852 11.4359 15.1337C11.4667 15.1822 11.5087 15.2243 11.562 15.2598C11.6153 15.2941 11.6768 15.3243 11.7467 15.3503C11.8165 15.3752 11.8911 15.3965 11.9704 15.4143L12.2971 15.4924C12.4557 15.5279 12.6013 15.5752 12.7339 15.6344C12.8665 15.6936 12.9813 15.7664 13.0783 15.8528C13.1754 15.9392 13.2506 16.041 13.3038 16.1582C13.3583 16.2754 13.3861 16.4098 13.3873 16.5613C13.3861 16.7838 13.3293 16.9768 13.2168 17.1401C13.1056 17.3023 12.9446 17.4283 12.7339 17.5183C12.5244 17.6071 12.2716 17.6515 11.9757 17.6515C11.6822 17.6515 11.4265 17.6065 11.2087 17.5165C10.9921 17.4266 10.8228 17.2934 10.7009 17.117C10.5801 16.9395 10.5168 16.7199 10.5109 16.4583H11.2548C11.2631 16.5802 11.298 16.682 11.3596 16.7637C11.4223 16.8442 11.5058 16.9051 11.61 16.9466C11.7153 16.9868 11.8343 17.0069 11.9668 17.0069C12.097 17.0069 12.2101 16.988 12.306 16.9501C12.403 16.9122 12.4782 16.8596 12.5315 16.7921C12.5847 16.7246 12.6114 16.6471 12.6114 16.5595C12.6114 16.4778 12.5871 16.4092 12.5386 16.3535C12.4912 16.2979 12.4214 16.2505 12.3291 16.2115C12.2379 16.1724 12.1261 16.1369 11.9935 16.1049L11.5975 16.0055C11.2909 15.9309 11.0489 15.8143 10.8713 15.6557C10.6938 15.4971 10.6056 15.2835 10.6068 15.0147C10.6056 14.7946 10.6642 14.6022 10.7825 14.4377C10.9021 14.2732 11.066 14.1447 11.2744 14.0524C11.4827 13.9601 11.7194 13.9139 11.9846 13.9139C12.2545 13.9139 12.49 13.9601 12.6913 14.0524C12.8937 14.1447 13.0511 14.2732 13.1636 14.4377C13.276 14.6022 13.334 14.7928 13.3376 15.0094H12.6007ZM14.6253 13.9636L15.3586 15.203H15.387L16.1239 13.9636H16.9921L15.8824 15.7818L17.017 17.6H16.1328L15.387 16.3589H15.3586L14.6129 17.6H13.7322L14.8703 15.7818L13.7535 13.9636H14.6253Z" fill="white"/>
</svg>
