<svg xmlns="http://www.w3.org/2000/svg" width="18" height="18" viewBox="0 0 18 18">
    <g id="Group_15105" data-name="Group 15105" transform="translate(-143 -291)">
        <g id="Group_15104" data-name="Group 15104" transform="translate(0 39)">
            <g id="Group_15102" data-name="Group 15102" transform="translate(0 40)">
                <g id="Group_15100" data-name="Group 15100" transform="translate(-1502 -501)">
                    <rect id="Rectangle_4330" data-name="Rectangle 4330" width="18" height="18" rx="1"
                          transform="translate(1645 713)" fill="#ff7537"/>
                </g>
            </g>
        </g>
        <path id="Subtraction_1" data-name="Subtraction 1"
              d="M12212.942-15936h-1.9v-8.952H12210V-15946h5.595c.02,0,1.907.229,2.281,2.762a3.483,3.483,0,0,1-.614,2.661,2.965,2.965,0,0,1-1.667,1.148,8.149,8.149,0,0,1-.975.039c-.611,0-1.3-.023-1.652-.038h-.026v3.429Zm1.194-8.508c-.385,0-.8.012-1.013.02h-.014v3.558c.012,0,.723.036,1.272.036a2.949,2.949,0,0,0,.616-.036,1.76,1.76,0,0,0,1.285-1.849,1.526,1.526,0,0,0-1.513-1.709C12214.633-15944.5,12214.419-15944.507,12214.137-15944.507Z"
              transform="translate(-12062.001 16241)" fill="#fff"/>
    </g>
</svg>
