<svg width="25" height="24" viewBox="0 0 25 24" fill="none" xmlns="http://www.w3.org/2000/svg">
<path d="M20.4 23.25H9.20001C7.40509 23.25 5.95001 21.7949 5.95001 20V4C5.95001 2.20508 7.40509 0.75 9.20001 0.75H17.1894L23.65 7.21066V20C23.65 21.7949 22.1949 23.25 20.4 23.25Z" fill="white" stroke="#C3CBD6" stroke-width="1.5"/>
<path d="M17.2 0.299988V3.19999C17.2 5.40912 18.9909 7.19999 21.2 7.19999H24.1" stroke="#C3CBD6" stroke-width="1.5"/>
<rect x="0.899994" y="10.6" width="17" height="10" rx="2" fill="#099250"/>
<path d="M5.31486 13.9636L6.04817 15.203H6.07657L6.81344 13.9636H7.68169L6.57196 15.7818L7.70655 17.6H6.82231L6.07657 16.3589H6.04817L5.30243 17.6H4.42174L5.55988 15.7818L4.44305 13.9636H5.31486ZM8.16819 17.6V13.9636H8.93701V16.9661H10.496V17.6H8.16819ZM11.7247 17.6H10.9008L12.1561 13.9636H13.1469L14.4004 17.6H13.5766L12.6657 14.7946H12.6373L11.7247 17.6ZM11.6732 16.1706H13.6192V16.7708H11.6732V16.1706Z" fill="white"/>
</svg>
