<svg width="27" height="24" viewBox="0 0 27 24" fill="none" xmlns="http://www.w3.org/2000/svg">
<path d="M22.4 23.25H11.2C9.40509 23.25 7.95001 21.7949 7.95001 20V4C7.95001 2.20508 9.40509 0.75 11.2 0.75H19.1894L25.65 7.21066V20C25.65 21.7949 24.1949 23.25 22.4 23.25Z" fill="white" stroke="#C3CBD6" stroke-width="1.5"/>
<path d="M19.2 0.299988V3.19999C19.2 5.40912 20.9909 7.19999 23.2 7.19999H26.1" stroke="#C3CBD6" stroke-width="1.5"/>
<rect x="0.899994" y="10.6" width="21" height="10" rx="2" fill="#099250"/>
<path d="M5.02726 13.9636L5.76057 15.203H5.78898L6.52584 13.9636H7.39409L6.28436 15.7818L7.41895 17.6H6.53472L5.78898 16.3589H5.76057L5.01483 17.6H4.13415L5.27229 15.7818L4.15545 13.9636H5.02726ZM7.8806 17.6V13.9636H8.64942V16.9661H10.2084V17.6H7.8806ZM11.4371 17.6H10.6132L11.8685 13.9636H12.8593L14.1128 17.6H13.289L12.3781 14.7946H12.3497L11.4371 17.6ZM11.3856 16.1706H13.3316V16.7708H11.3856V16.1706ZM14.5505 13.9636H15.4987L16.5001 16.4068H16.5427L17.5441 13.9636H18.4923V17.6H17.7465V15.2331H17.7164L16.7753 17.5822H16.2675L15.3264 15.2243H15.2963V17.6H14.5505V13.9636Z" fill="white"/>
</svg>
