<svg width="24" height="24" viewBox="0 0 24 24" fill="none" xmlns="http://www.w3.org/2000/svg">
<path d="M19.4 23.25H8.19999C6.40507 23.25 4.95 21.7949 4.95 20V4C4.95 2.20508 6.40507 0.75 8.2 0.75H16.1893L22.65 7.21066V20C22.65 21.7949 21.1949 23.25 19.4 23.25Z" fill="white" stroke="#D0D5DD" stroke-width="1.5"/>
<path d="M16.2 0.299988V3.19999C16.2 5.40912 17.9909 7.19999 20.2 7.19999H23.1" stroke="#D0D5DD" stroke-width="1.5"/>
<rect x="0.399994" y="10.6" width="16" height="10" rx="2" fill="#099250"/>
<path d="M4.59318 13.9636L5.32649 15.203H5.35489L6.09176 13.9636H6.96001L5.85028 15.7818L6.98487 17.6H6.10063L5.35489 16.3589H5.32649L4.58075 17.6H3.70006L4.8382 15.7818L3.72137 13.9636H4.59318ZM7.44651 17.6V13.9636H8.21533V16.9661H9.77428V17.6H7.44651ZM12.2561 15.0094C12.2419 14.8662 12.1809 14.7549 12.0732 14.6756C11.9655 14.5963 11.8193 14.5567 11.6346 14.5567C11.5092 14.5567 11.4032 14.5744 11.3168 14.6099C11.2304 14.6442 11.1641 14.6922 11.1179 14.7537C11.073 14.8153 11.0505 14.8851 11.0505 14.9633C11.0481 15.0284 11.0617 15.0852 11.0913 15.1337C11.1221 15.1822 11.1641 15.2243 11.2174 15.2598C11.2706 15.2941 11.3322 15.3243 11.402 15.3503C11.4719 15.3752 11.5464 15.3965 11.6258 15.4143L11.9525 15.4924C12.1111 15.5279 12.2567 15.5752 12.3893 15.6344C12.5218 15.6936 12.6366 15.7664 12.7337 15.8528C12.8308 15.9392 12.9059 16.041 12.9592 16.1582C13.0137 16.2754 13.0415 16.4098 13.0427 16.5613C13.0415 16.7838 12.9847 16.9768 12.8722 17.1401C12.7609 17.3023 12.6 17.4283 12.3893 17.5183C12.1797 17.6071 11.927 17.6515 11.6311 17.6515C11.3375 17.6515 11.0818 17.6065 10.864 17.5165C10.6474 17.4266 10.4781 17.2934 10.3562 17.117C10.2355 16.9395 10.1722 16.7199 10.1662 16.4583H10.9102C10.9185 16.5802 10.9534 16.682 11.015 16.7637C11.0777 16.8442 11.1612 16.9051 11.2653 16.9466C11.3707 16.9868 11.4896 17.0069 11.6222 17.0069C11.7524 17.0069 11.8655 16.988 11.9613 16.9501C12.0584 16.9122 12.1336 16.8596 12.1868 16.7921C12.2401 16.7246 12.2667 16.6471 12.2667 16.5595C12.2667 16.4778 12.2425 16.4092 12.1939 16.3535C12.1466 16.2979 12.0768 16.2505 11.9844 16.2115C11.8933 16.1724 11.7814 16.1369 11.6488 16.1049L11.2529 16.0055C10.9463 15.9309 10.7042 15.8143 10.5267 15.6557C10.3491 15.4971 10.2609 15.2835 10.2621 15.0147C10.2609 14.7946 10.3195 14.6022 10.4379 14.4377C10.5575 14.2732 10.7214 14.1447 10.9297 14.0524C11.1381 13.9601 11.3748 13.9139 11.64 13.9139C11.9098 13.9139 12.1454 13.9601 12.3466 14.0524C12.5491 14.1447 12.7065 14.2732 12.8189 14.4377C12.9314 14.6022 12.9894 14.7928 12.9929 15.0094H12.2561Z" fill="white"/>
</svg>
