<svg width="27" height="24" viewBox="0 0 27 24" fill="none" xmlns="http://www.w3.org/2000/svg">
<path d="M22.4 23.25H11.2C9.40507 23.25 7.95 21.7949 7.95 20V4C7.95 2.20508 9.40507 0.75 11.2 0.75H19.1893L25.65 7.21066V20C25.65 21.7949 24.1949 23.25 22.4 23.25Z" fill="white" stroke="#C3CBD6" stroke-width="1.5"/>
<path d="M19.2 0.299988V3.19999C19.2 5.40912 20.9909 7.19999 23.2 7.19999H26.1" stroke="#C3CBD6" stroke-width="1.5"/>
<rect x="0.900002" y="10.6" width="21" height="10" rx="2" fill="#099250"/>
<path d="M5.30559 13.9636L6.0389 15.203H6.0673L6.80417 13.9636H7.67242L6.56269 15.7818L7.69728 17.6H6.81304L6.0673 16.3589H6.0389L5.29316 17.6H4.41247L5.55061 15.7818L4.43378 13.9636H5.30559ZM8.15892 17.6V13.9636H8.92774V16.9661H10.4867V17.6H8.15892ZM12.9685 15.0094C12.9543 14.8662 12.8933 14.7549 12.7856 14.6756C12.6779 14.5963 12.5317 14.5567 12.347 14.5567C12.2216 14.5567 12.1156 14.5744 12.0292 14.6099C11.9428 14.6442 11.8765 14.6922 11.8304 14.7537C11.7854 14.8153 11.7629 14.8851 11.7629 14.9633C11.7605 15.0284 11.7741 15.0852 11.8037 15.1337C11.8345 15.1822 11.8765 15.2243 11.9298 15.2598C11.9831 15.2941 12.0446 15.3243 12.1144 15.3503C12.1843 15.3752 12.2589 15.3965 12.3382 15.4143L12.6649 15.4924C12.8235 15.5279 12.9691 15.5752 13.1017 15.6344C13.2342 15.6936 13.3491 15.7664 13.4461 15.8528C13.5432 15.9392 13.6184 16.041 13.6716 16.1582C13.7261 16.2754 13.7539 16.4098 13.7551 16.5613C13.7539 16.7838 13.6971 16.9768 13.5846 17.1401C13.4733 17.3023 13.3124 17.4283 13.1017 17.5183C12.8921 17.6071 12.6394 17.6515 12.3435 17.6515C12.0499 17.6515 11.7943 17.6065 11.5764 17.5165C11.3598 17.4266 11.1906 17.2934 11.0686 17.117C10.9479 16.9395 10.8846 16.7199 10.8787 16.4583H11.6226C11.6309 16.5802 11.6658 16.682 11.7274 16.7637C11.7901 16.8442 11.8736 16.9051 11.9777 16.9466C12.0831 16.9868 12.202 17.0069 12.3346 17.0069C12.4648 17.0069 12.5779 16.988 12.6737 16.9501C12.7708 16.9122 12.846 16.8596 12.8992 16.7921C12.9525 16.7246 12.9791 16.6471 12.9791 16.5595C12.9791 16.4778 12.9549 16.4092 12.9063 16.3535C12.859 16.2979 12.7892 16.2505 12.6968 16.2115C12.6057 16.1724 12.4938 16.1369 12.3612 16.1049L11.9653 16.0055C11.6587 15.9309 11.4166 15.8143 11.2391 15.6557C11.0615 15.4971 10.9733 15.2835 10.9745 15.0147C10.9733 14.7946 11.0319 14.6022 11.1503 14.4377C11.2699 14.2732 11.4338 14.1447 11.6421 14.0524C11.8505 13.9601 12.0872 13.9139 12.3524 13.9139C12.6223 13.9139 12.8578 13.9601 13.059 14.0524C13.2615 14.1447 13.4189 14.2732 13.5313 14.4377C13.6438 14.6022 13.7018 14.7928 13.7054 15.0094H12.9685ZM14.2722 13.9636H15.2204L16.2218 16.4068H16.2644L17.2658 13.9636H18.214V17.6H17.4682V15.2331H17.438L16.497 17.5822H15.9892L15.0481 15.2243H15.0179V17.6H14.2722V13.9636Z" fill="white"/>
</svg>
