<svg width="26" height="24" viewBox="0 0 26 24" fill="none" xmlns="http://www.w3.org/2000/svg">
<path d="M21.4 23.25H10.2C8.40507 23.25 6.95 21.7949 6.95 20V4C6.95 2.20508 8.40508 0.75 10.2 0.75H18.1893L24.65 7.21066V20C24.65 21.7949 23.1949 23.25 21.4 23.25Z" fill="white" stroke="#C3CBD6" stroke-width="1.5"/>
<path d="M18.2 0.299988V3.19999C18.2 5.40912 19.9909 7.19999 22.2 7.19999H25.1" stroke="#C3CBD6" stroke-width="1.5"/>
<rect x="0.4" y="10.6" width="20" height="10" rx="2" fill="#099250"/>
<path d="M4.80607 13.9636L5.53938 15.203H5.56779L6.30465 13.9636H7.1729L6.06317 15.7818L7.19776 17.6H6.31353L5.56779 16.3589H5.53938L4.79364 17.6H3.91296L5.0511 15.7818L3.93427 13.9636H4.80607ZM7.65941 17.6V13.9636H8.42823V16.9661H9.98718V17.6H7.65941ZM12.469 15.0094C12.4548 14.8662 12.3938 14.7549 12.2861 14.6756C12.1784 14.5963 12.0322 14.5567 11.8475 14.5567C11.7221 14.5567 11.6161 14.5744 11.5297 14.6099C11.4433 14.6442 11.377 14.6922 11.3308 14.7537C11.2859 14.8153 11.2634 14.8851 11.2634 14.9633C11.261 15.0284 11.2746 15.0852 11.3042 15.1337C11.335 15.1822 11.377 15.2243 11.4303 15.2598C11.4835 15.2941 11.5451 15.3243 11.6149 15.3503C11.6848 15.3752 11.7593 15.3965 11.8387 15.4143L12.1654 15.4924C12.324 15.5279 12.4696 15.5752 12.6021 15.6344C12.7347 15.6936 12.8495 15.7664 12.9466 15.8528C13.0437 15.9392 13.1188 16.041 13.1721 16.1582C13.2266 16.2754 13.2544 16.4098 13.2556 16.5613C13.2544 16.7838 13.1976 16.9768 13.0851 17.1401C12.9738 17.3023 12.8128 17.4283 12.6021 17.5183C12.3926 17.6071 12.1399 17.6515 11.844 17.6515C11.5504 17.6515 11.2947 17.6065 11.0769 17.5165C10.8603 17.4266 10.691 17.2934 10.5691 17.117C10.4484 16.9395 10.3851 16.7199 10.3791 16.4583H11.1231C11.1314 16.5802 11.1663 16.682 11.2279 16.7637C11.2906 16.8442 11.374 16.9051 11.4782 16.9466C11.5836 16.9868 11.7025 17.0069 11.8351 17.0069C11.9653 17.0069 12.0784 16.988 12.1742 16.9501C12.2713 16.9122 12.3465 16.8596 12.3997 16.7921C12.453 16.7246 12.4796 16.6471 12.4796 16.5595C12.4796 16.4778 12.4554 16.4092 12.4068 16.3535C12.3595 16.2979 12.2896 16.2505 12.1973 16.2115C12.1062 16.1724 11.9943 16.1369 11.8617 16.1049L11.4658 16.0055C11.1592 15.9309 10.9171 15.8143 10.7396 15.6557C10.562 15.4971 10.4738 15.2835 10.475 15.0147C10.4738 14.7946 10.5324 14.6022 10.6508 14.4377C10.7704 14.2732 10.9343 14.1447 11.1426 14.0524C11.351 13.9601 11.5877 13.9139 11.8529 13.9139C12.1227 13.9139 12.3583 13.9601 12.5595 14.0524C12.7619 14.1447 12.9194 14.2732 13.0318 14.4377C13.1443 14.6022 13.2023 14.7928 13.2058 15.0094H12.469ZM14.4936 13.9636L15.2269 15.203H15.2553L15.9922 13.9636H16.8604L15.7507 15.7818L16.8853 17.6H16.001L15.2553 16.3589H15.2269L14.4811 17.6H13.6005L14.7386 15.7818L13.6218 13.9636H14.4936Z" fill="white"/>
</svg>
