<svg width="24" height="24" viewBox="0 0 24 24" fill="none" xmlns="http://www.w3.org/2000/svg">
<path d="M19.4 23.25H8.19999C6.40507 23.25 4.95 21.7949 4.95 20V4C4.95 2.20508 6.40507 0.75 8.2 0.75H16.1893L22.65 7.21066V20C22.65 21.7949 21.1949 23.25 19.4 23.25Z" fill="white" stroke="#C3CBD6" stroke-width="1.5"/>
<path d="M16.2 0.299988V3.19999C16.2 5.40912 17.9909 7.19999 20.2 7.19999H23.1" stroke="#C3CBD6" stroke-width="1.5"/>
<rect x="0.399994" y="10.6" width="16" height="10" rx="2" fill="#099250"/>
<path d="M4.78849 13.9636L5.5218 15.203H5.55021L6.28707 13.9636H7.15532L6.04559 15.7818L7.18018 17.6H6.29595L5.55021 16.3589H5.5218L4.77606 17.6H3.89538L5.03352 15.7818L3.91668 13.9636H4.78849ZM7.64183 17.6V13.9636H8.41065V16.9661H9.9696V17.6H7.64183ZM9.88614 14.5975V13.9636H12.8727V14.5975H11.7594V17.6H10.9994V14.5975H9.88614Z" fill="white"/>
</svg>
