<svg width="26" height="24" viewBox="0 0 26 24" fill="none" xmlns="http://www.w3.org/2000/svg">
<path d="M21.4 23.25H10.2C8.40507 23.25 6.95 21.7949 6.95 20V4C6.95 2.20508 8.40507 0.75 10.2 0.75H18.1893L24.65 7.21066V20C24.65 21.7949 23.1949 23.25 21.4 23.25Z" fill="white" stroke="#C3CBD6" stroke-width="1.5"/>
<path d="M18.2 0.299988V3.19999C18.2 5.40912 19.9909 7.19999 22.2 7.19999H25.1" stroke="#C3CBD6" stroke-width="1.5"/>
<rect x="0.399994" y="10.6" width="20" height="10" rx="2" fill="#099250"/>
<path d="M4.50089 13.9636L5.2342 15.203H5.26261L5.99947 13.9636H6.86772L5.75799 15.7818L6.89258 17.6H6.00835L5.26261 16.3589H5.2342L4.48846 17.6H3.60778L4.74592 15.7818L3.62909 13.9636H4.50089ZM7.35423 17.6V13.9636H8.12305V16.9661H9.682V17.6H7.35423ZM9.59855 14.5975V13.9636H12.5851V14.5975H11.4718V17.6H10.7118V14.5975H9.59855ZM13.0769 13.9636H14.025L15.0265 16.4068H15.0691L16.0705 13.9636H17.0186V17.6H16.2729V15.2331H16.2427L15.3017 17.5822H14.7939L13.8528 15.2243H13.8226V17.6H13.0769V13.9636Z" fill="white"/>
</svg>
