<svg width="26" height="24" viewBox="0 0 26 24" fill="none" xmlns="http://www.w3.org/2000/svg">
<path d="M21.4 23.25H10.2C8.40507 23.25 6.95 21.7949 6.95 20V4C6.95 2.20508 8.40507 0.75 10.2 0.75H18.1893L24.65 7.21066V20C24.65 21.7949 23.1949 23.25 21.4 23.25Z" fill="white" stroke="#C3CBD6" stroke-width="1.5"/>
<path d="M18.2 0.299988V3.19999C18.2 5.40912 19.9909 7.19999 22.2 7.19999H25.1" stroke="#C3CBD6" stroke-width="1.5"/>
<rect x="0.899994" y="10.6" width="19" height="10" rx="2" fill="#099250"/>
<path d="M5.00138 13.9636L5.73469 15.203H5.7631L6.49996 13.9636H7.36821L6.25848 15.7818L7.39307 17.6H6.50884L5.7631 16.3589H5.73469L4.98895 17.6H4.10827L5.24641 15.7818L4.12957 13.9636H5.00138ZM7.85472 17.6V13.9636H8.62354V16.9661H10.1825V17.6H7.85472ZM10.099 14.5975V13.9636H13.0855V14.5975H11.9723V17.6H11.2123V14.5975H10.099ZM14.2983 13.9636L15.0316 15.203H15.06L15.7968 13.9636H16.6651L15.5554 15.7818L16.6899 17.6H15.8057L15.06 16.3589H15.0316L14.2858 17.6H13.4051L14.5433 15.7818L13.4264 13.9636H14.2983Z" fill="white"/>
</svg>
