<svg xmlns="http://www.w3.org/2000/svg" viewBox="0 0 474.5 482.5"><defs><style>.cls-1{isolation:isolate;}.cls-2{opacity:0.7;}.cls-3{stroke:#000;stroke-miterlimit:10;stroke-width:7px;}.cls-4{opacity:0.75;mix-blend-mode:multiply;}.cls-5{fill:#fff;}</style></defs><title>Asset 7</title><g class="cls-1"><g id="Layer_2" data-name="Layer 2"><g id="Layer_4" data-name="Layer 4" class="cls-2"><rect class="cls-3" x="-0.5" y="59.56055" width="475.5" height="467.5" rx="43.90703" transform="translate(530.56055 4) rotate(90)"/></g><g id="Layer_5" data-name="Layer 5"><g class="cls-4"><path d="M367.8254,459.21582C332.842,466.0166,263.08029,336.80762,232.84005,304.9082c-3.84766-4.64746-7.22217-9.38867-6.72266-14.39257,46.186-17.31739,123.14209-83.30079,116.06641-119.70215-4.04346-20.80078-30.0835-26.042-65.53955-19.14991C211.4045,164.34473,90.759,222.62842,95.2087,255.61621c.919,4.72852,3.54493,8.14209,9.09961,11.478-15.86377,16.82129-41.79883,9.59668-45.56689-9.78613C50.01193,212.398,220.61154,138.51465,290.10568,125.00635c48.69336-9.46485,86.0791-6.4292,92.51171,26.66357,9.46534,48.69336-66.04589,109.48877-110.40722,138.71729,35.45312,46.09521,102.28808,140.0581,130.23242,142.47607C398.31857,444.458,382.95431,456.27539,367.8254,459.21582ZM186.77853,438.96875a17.95235,17.95235,0,0,0,2.04834,5.48926c-13.52588,3.61035-41.103,3.083-44.04346-12.04395-5.69727-29.31054,20.8374-167.916,38.9624-218.53857,4.21631-11.12207,17.95264-18.69873,37.689-18.11914C207.31613,239.22217,179.70284,402.56641,186.77853,438.96875Z" transform="translate(0 -52.06055)"/></g><path class="cls-5" d="M360.8254,452.21582C325.842,459.0166,256.08029,329.80762,225.84005,297.9082c-3.84766-4.64746-7.22217-9.38916-6.72266-14.39257,46.186-17.31739,123.14209-83.30079,116.06641-119.70215-4.04346-20.80078-30.0835-26.042-65.53955-19.14991C204.4045,157.34473,83.759,215.62842,88.2087,248.61621c.919,4.72852,3.54493,8.14209,9.09961,11.478-15.86377,16.82129-41.79883,9.59668-45.56689-9.78613C43.01193,205.398,213.61154,131.51465,283.10568,118.00635c48.69336-9.46485,86.0791-6.4292,92.51171,26.66357,9.46534,48.69336-66.04589,109.48877-110.40722,138.71729,35.45312,46.09521,102.28808,140.0581,130.23242,142.47607C391.31857,437.458,375.95431,449.27539,360.8254,452.21582ZM179.77853,431.96875a17.95235,17.95235,0,0,0,2.04834,5.48926c-13.52588,3.61035-41.103,3.083-44.04346-12.04395-5.69727-29.31054,20.8374-167.916,38.9624-218.53857,4.21631-11.12207,17.95264-18.69873,37.689-18.11914C200.31613,232.22217,172.70284,395.56641,179.77853,431.96875Z" transform="translate(0 -52.06055)"/></g></g></g></svg>